<svg width="1024" height="1024" viewBox="0 0 1024 1024" fill="none" xmlns="http://www.w3.org/2000/svg">
<path d="M748.06 671.23C747.75 687.06 726.52 703.98 716.025 714.86L685.2 746.48C678.705 753.13 670.365 762.365 662.9 767.63C657.91 771.15 648.125 773.17 641.945 773.44C622.65 774.28 603.165 773.705 583.865 773.755L474.718 773.94L416.495 773.91C403.124 773.975 389.168 774.545 375.891 773.03C360.107 771.225 350.662 758.13 340.385 747.615L313.137 720.145C302.608 709.385 290.132 698.515 281.338 686.32C278.066 681.785 276.128 673.58 276.062 668C275.86 650.915 275.978 633.755 276.047 616.64L276.001 543.865C276.074 533.345 276.087 522.83 276.042 512.31C275.932 496.135 274.184 482.993 286.624 470.398C294.143 462.785 302.161 455.467 309.624 447.824C346.468 410.351 383.673 373.236 421.234 336.481C436.177 321.647 452.803 305.876 467.33 290.97L487.289 270.636C495.515 262.152 509.445 243.697 522.105 256.242C561.605 295.395 602.415 334.274 641.53 373.747L700.035 432.361C711.535 443.909 722.73 455.959 734.585 467.111C743.92 475.896 747.815 483.885 748.045 496.798C748.905 502.315 748.52 524.92 748.525 531.76L748.56 603.105C748.54 619.295 748.695 635.47 748.675 651.645C748.665 656.055 748.745 667.285 748.06 671.23Z" fill="#B0B8C4"/>
<path d="M748.046 496.797C748.906 502.314 748.521 524.919 748.526 531.759L748.561 603.104C748.541 619.294 748.696 635.469 748.676 651.644C748.666 656.054 748.746 667.284 748.061 671.229C746.951 665.179 747.706 652.649 747.796 646.129C747.861 635.369 747.871 624.604 747.826 613.844C747.781 594.544 747.451 575.364 747.931 556.029C748.251 543.109 746.736 529.709 747.711 516.589C748.191 510.134 747.386 503.424 748.046 496.797Z" fill="#B0B8C4"/>
<path d="M416.402 643.122C416.191 642.757 416.324 642.927 415.895 642.597C406.741 635.777 397.87 624.677 396.949 612.677C395.897 598.977 394.625 576.948 399.804 563.986C408.029 543.398 431.684 530.697 453.238 536.68C457.797 537.945 462.092 540.348 466.45 542.135C485.976 557.878 486.945 568.464 486.783 592.237C486.665 609.492 488.037 623.307 474.34 636.942C457.607 653.252 436.085 653.767 416.402 643.122Z" fill="white"/>
<path d="M575.683 535.618C587.573 534.35 599.322 536.452 608.962 543.438C626.597 556.219 629.037 572.554 628.567 592.941C628.212 608.191 629.277 619.296 619.137 632.431C610.817 643.211 602.267 647.801 589.027 649.821C578.717 651.311 565.507 648.606 557.017 642.891C539.977 631.421 536.253 614.271 536.858 595.006C537.328 579.998 535.818 568.671 544.988 555.353C552.953 543.787 562.168 538.342 575.683 535.618Z" fill="white"/>
</svg>
