<svg width="1024" height="1024" viewBox="0 0 1024 1024" fill="none" xmlns="http://www.w3.org/2000/svg">
<path d="M368.935 454.698C369.455 421.848 376.106 394.43 392.072 365.637C436.132 286.175 539.4 268.058 603.22 336.346C626.74 361.822 641.865 393.912 646.54 428.269C647.945 438.335 647.415 446.306 648.415 454.772C659 451.902 678.33 456.911 688.27 462.556C704.82 471.974 716.895 487.647 721.78 506.056C727.46 526.771 726.92 551.361 716.06 570.331C713.075 575.471 709.63 580.336 705.78 584.861C703.42 587.641 700.66 590.401 698.655 593.376C706.695 597.281 724.755 596.116 734.11 595.936C764.295 595.366 790.26 612.266 800.79 640.781C809.01 662.516 808.075 686.656 798.2 707.691C790.995 723.011 775.98 736.821 760.02 742.121C745.44 746.966 720.7 744.921 704.83 745.021L700.205 745.051L396.712 745.156L317.509 745.036C293.935 745.081 271.124 748.991 250.509 735.596C234.324 725.086 224.03 709.261 219.532 690.716C215.226 672.966 216.942 655.676 223.935 639.031C235.397 609.246 262.536 594.141 293.91 595.901C300.262 596.256 309.061 596.216 315.444 595.446C316.871 595.271 317.707 594.486 318.395 593.301C317.48 589.566 306.099 576.506 303.085 570.841C281.582 530.466 296.413 469.666 344.095 456.7C350.244 455.028 362.734 453.015 368.935 454.698ZM394.809 464.899C395.446 463.395 396.036 462.553 395.624 461.012C394.786 460.1 395.082 460.263 394.052 459.677C392.799 461.496 392.745 460.965 392.831 462.738C393.555 463.609 393.937 464.168 394.809 464.899Z" fill="#FFB300"/>
<path d="M368.934 454.698C369.454 421.848 376.105 394.43 392.07 365.637C436.13 286.175 539.398 268.058 603.218 336.346C626.738 361.822 641.863 393.912 646.538 428.269C647.943 438.335 647.413 446.306 648.413 454.772C647.863 492.903 634.193 531.696 609.333 560.336C534.958 646.011 410.768 610.001 377.692 506.551C371.579 487.428 369.96 474.764 368.934 454.698ZM394.807 464.899C395.445 463.395 396.035 462.553 395.622 461.012C394.784 460.1 395.081 460.263 394.051 459.677C392.798 461.496 392.743 460.965 392.83 462.738C393.553 463.609 393.936 464.168 394.807 464.899Z" fill="#FFB300"/>
<path d="M444.475 452.35C446.363 421.622 471.535 386.442 504.031 384.405C504.996 384.344 508.236 385.321 509.306 385.676C513.136 383.509 518.256 384.704 522.406 385.99C572.246 401.413 585.541 465.405 563.616 508.16C562.481 510.5 561.556 512.6 560.091 514.76C554.821 521.96 552.311 525.95 545.121 531.39C543.231 532.87 541.111 534.63 539.111 535.91L536.066 537.97C530.626 540.65 527.466 541.79 521.576 543.265C506.831 546.385 496.167 544.515 482.805 538.22C480.652 537.16 479.344 536.365 477.313 535.07C457.274 521.755 445.648 496.832 444.554 473.311C444.452 471.117 443.419 468.273 443.886 466.178C443.925 460.272 443.719 458.417 444.475 452.35Z" fill="#FFB300"/>
<path d="M545.121 531.389C546.896 527.589 546.351 522.544 549.411 518.814C550.251 517.784 550.926 516.109 551.386 514.829L552.921 514.629C554.721 515.559 557.551 514.659 560.091 514.759C554.821 521.959 552.311 525.949 545.121 531.389Z" fill="#FFB300"/>
<path d="M522.794 537.604C527.939 534.204 528.174 534.334 533.544 532.234C533.639 534.659 534.979 535.619 536.064 537.969C530.624 540.649 527.464 541.789 521.574 543.264L522.794 537.604Z" fill="#FFB300"/>
<path d="M552.922 514.63C555.052 514.34 554.367 514.85 555.377 513.535C555.487 506.15 558.752 510.705 563.617 508.16C562.482 510.5 561.557 512.6 560.092 514.76C557.552 514.66 554.722 515.56 552.922 514.63Z" fill="#FFB300"/>
<path d="M443.887 466.176C443.926 460.27 443.72 458.415 444.476 452.348C444.509 453.035 444.593 455.858 444.735 456.377C446.311 462.155 451.446 460.119 443.887 466.176Z" fill="#FFB300"/>
<path d="M477.312 535.071C478.661 533.991 478.897 533.741 480.47 532.941C481.988 533.831 481.544 535.771 482.805 538.221C480.651 537.161 479.343 536.366 477.312 535.071Z" fill="#FFB300"/>
<path d="M533.547 532.234C536.157 533.379 536.922 534.154 539.112 535.909L536.067 537.969C534.982 535.619 533.642 534.659 533.547 532.234Z" fill="#FFB300"/>
<path d="M455.343 542.395C458.155 545.25 454.004 548.635 452.094 550.635C451.558 550.135 451.527 549.915 451.142 549.25C451.084 546.38 453.409 544.465 455.343 542.395Z" fill="#FFB300"/>
<path d="M562.094 369.688C563.734 370.21 565.174 370.426 566.244 371.688C566.194 373.427 565.909 373.156 564.469 374.875C563.169 375.835 563.874 375.696 562.414 375.621C561.574 374.068 561.989 371.564 562.094 369.688Z" fill="#FFB300"/>
<path d="M465.475 556.656C468.235 557.441 468.93 558.561 469.796 561.146C467.931 561.026 467.944 561.091 466.145 560.301C465.1 558.481 465.422 559.056 465.475 556.656Z" fill="#FFB300"/>
<path d="M394.053 459.676C395.083 460.262 394.786 460.099 395.624 461.011C396.037 462.552 395.447 463.394 394.809 464.898C393.938 464.167 393.555 463.608 392.832 462.737C392.745 460.964 392.8 461.495 394.053 459.676Z" fill="#FFB300"/>
<path d="M624.105 575.164C628.11 576.834 626.805 581.559 625.67 584.844C625.045 584.804 624.12 584.634 623.475 584.539C621.98 582.554 623.975 578.399 624.105 575.164Z" fill="#FFB300"/>
<path d="M485.776 698.238C488.522 699.858 491.141 703.123 488.77 706.153C486.64 703.428 484.693 702.978 484.156 700.728L485.776 698.238Z" fill="#FFB300"/>
<path d="M556.546 645.387C559.146 645.597 558.891 645.437 560.251 646.837C560.961 648.987 560.496 651.032 560.256 653.342C557.141 651.837 556.376 648.637 556.546 645.387Z" fill="#FFB300"/>
<path d="M744.961 698.797C746.671 699.557 748.836 700.497 749.651 702.132C749.486 704.017 749.471 703.482 747.946 705.237C747.391 705.382 746.586 705.427 745.986 705.487C745.311 704.642 745.331 700.512 744.961 698.797Z" fill="#FFB300"/>
<path d="M646.82 548.535C650.595 549.56 652.925 548.53 653.67 552.43C650.5 552.745 646.835 552.67 646.82 548.535Z" fill="#FFB300"/>
<path d="M594.196 701.924C595.356 701.634 596.536 702.284 596.916 703.414C597.296 704.544 596.746 705.774 595.651 706.244C594.861 706.589 593.941 706.454 593.281 705.899C592.621 705.349 592.321 704.469 592.516 703.629C592.711 702.789 593.361 702.129 594.196 701.924Z" fill="#FFB300"/>
<path d="M508.43 727.855C511.58 729.055 514.46 729.15 513.915 732.665C510.46 732.665 509.18 731.095 508.43 727.855Z" fill="#FFB300"/>
<path d="M387.914 608.195C389.486 608.375 389.442 608.45 390.871 609.2C391.836 611.03 391.554 610.395 391.32 612.785C390.057 613.025 390.131 612.98 388.88 612.615C387.714 610.885 388.092 610.64 387.914 608.195Z" fill="#FFB300"/>
<path d="M597.086 678.73C598.201 679.245 598.131 679.31 598.911 680.29C599.191 681.95 598.511 682.81 597.736 684.345C596.436 683.41 596.491 683.45 595.531 682.16C595.631 680.2 595.756 680.635 597.086 678.73Z" fill="#FFB300"/>
<path d="M345.799 487.18C346.348 487.426 346.382 487.568 346.848 488.012C346.769 490.2 345.594 492.208 344.658 494.26C343.525 493.731 343.992 494.135 343.457 492.778C343.644 490.708 344.786 489.057 345.799 487.18Z" fill="#FFB300"/>
<path d="M552.746 679.344C555.556 679.709 556.696 680.449 557.671 683.129C555.811 683.229 555.636 683.369 553.871 682.669C552.596 681.039 552.981 681.674 552.746 679.344Z" fill="#FFB300"/>
<path d="M528.997 727.203C530.982 728.813 531.152 728.433 531.887 730.463L531.097 732.088C529.447 731.423 529.287 731.473 527.967 730.213C527.792 728.558 527.922 728.988 528.997 727.203Z" fill="#FFB300"/>
<path d="M595.866 709.781C598.426 710.916 598.941 711.991 598.531 714.726C596.971 714.206 596.316 714.151 595.286 712.871C595.001 710.876 594.946 711.886 595.866 709.781Z" fill="#FFB300"/>
<path d="M691.159 534.176C692.894 534.546 692.194 534.146 693.394 535.316C693.009 537.011 692.739 536.851 691.409 538.361L689.984 538.366L689.449 537.761C689.564 536.076 690.164 535.551 691.159 534.176Z" fill="#FFB300"/>
<path d="M538.569 714.781C540.269 716.351 540.749 718.926 539.994 721.076C538.699 720.346 538.774 720.311 537.819 719.136C537.404 717.306 537.904 716.551 538.569 714.781Z" fill="#FFB300"/>
<path d="M461.188 664.203C462.78 664.398 462.871 664.283 464.22 665.073C464.586 666.838 464.586 665.903 463.544 667.948C461.939 667.608 461.881 667.648 460.453 666.898C460.08 665.258 460.07 666.133 461.188 664.203Z" fill="#FFB300"/>
<path d="M679.252 700.238L680.272 701.143C680.562 702.988 679.697 704.018 678.777 705.713C677.497 704.778 678.037 705.358 677.297 703.738C677.527 702.053 678.167 701.558 679.252 700.238Z" fill="#FFB300"/>
<path d="M740.93 728.121C742.195 728.451 742.12 728.541 743.04 729.516C743.525 731.186 743.345 731.336 742.95 733.011C741.895 732.431 741.53 732.106 740.54 731.381C740 729.526 740.07 730.256 740.93 728.121Z" fill="#FFB300"/>
<path d="M348.164 574.73C349.194 575.06 349.383 575.211 350.354 575.706C351.24 577.531 350.96 576.98 350.702 579.32C349.387 578.845 349.742 578.976 348.563 578.141C347.677 576.111 347.919 577.185 348.164 574.73Z" fill="#FFB300"/>
<path d="M346.034 713.746C347.063 714.151 346.569 713.841 347.455 714.761C347.433 716.626 347.172 716.401 346.06 718.276C344.748 717.706 345.289 718.091 344.492 717.001C344.676 715.171 344.837 715.486 346.034 713.746Z" fill="#FFB300"/>
<path d="M657.126 702.234C659.741 702.934 660.626 703.369 660.966 706.074C659.726 705.954 659.186 705.719 658.006 705.344C656.756 703.699 657.186 704.649 657.126 702.234Z" fill="#FFB300"/>
<path d="M266.98 644.039C269.73 644.934 270.097 645.309 270.479 648.149C269.744 648.239 269.277 648.184 268.535 648.164C267.072 646.724 267.472 646.519 266.98 644.039Z" fill="#FFB300"/>
<path d="M302.242 669.789C303.336 669.874 303.315 669.914 304.386 670.199C305.623 671.869 305.236 671.474 305.503 673.849C304.539 673.759 304.574 673.679 303.639 673.334C302.426 672.129 302.504 671.489 302.242 669.789Z" fill="#FFB300"/>
<path d="M604.124 607.766C605.999 609.381 605.059 611.636 604.204 613.496C603.844 613.186 603.349 612.581 603.019 612.201C602.754 610.496 603.444 609.396 604.124 607.766Z" fill="#FFB300"/>
<path d="M685.759 736.266C686.459 736.541 686.639 736.721 687.269 737.136C687.464 739.181 687.199 738.866 686.144 741.046L685.469 740.866L684.934 739.796C684.999 737.856 685.024 737.936 685.759 736.266Z" fill="#FFB300"/>
<path d="M701.095 705.951C701.66 705.741 702.29 705.856 702.745 706.246C703.2 706.636 703.41 707.241 703.29 707.831C703.17 708.421 702.74 708.896 702.17 709.076C701.31 709.346 700.4 708.886 700.105 708.036C699.815 707.191 700.255 706.261 701.095 705.951Z" fill="#FFB300"/>
<path d="M544.475 605.664L545.72 606.399C546.09 608.379 545.785 608.079 544.8 610.334C543.85 609.894 544.305 610.219 543.515 609.249C543.365 607.539 543.705 607.184 544.475 605.664Z" fill="#FFB300"/>
<path d="M707.536 630.172C708.121 630.532 708.366 630.837 708.876 631.317C709.291 632.932 708.911 633.482 708.341 635.057L706.906 633.722C706.546 631.917 706.791 632.212 707.536 630.172Z" fill="#FFB300"/>
<path d="M347.962 706.234C348.916 706.534 348.656 706.459 349.509 707.049C349.425 708.734 349.057 708.579 347.685 710.229L346.655 709.379C346.527 707.729 346.781 708.004 347.962 706.234Z" fill="#FFB300"/>
<path d="M476.578 683.727L478.302 684.402C479.659 686.052 479.24 685.647 479.64 688.067C476.984 686.622 476.812 686.742 476.578 683.727Z" fill="#FFB300"/>
<path d="M658.571 623.334C659.056 623.054 659.651 623.074 660.111 623.384C660.576 623.694 660.821 624.239 660.746 624.789C660.676 625.339 660.296 625.799 659.766 625.979C659.056 626.219 658.281 625.879 657.971 625.194C657.666 624.514 657.926 623.709 658.571 623.334Z" fill="#FFB300"/>
<path d="M253.381 695.276C254.037 694.901 254.873 695.111 255.274 695.751C255.674 696.391 255.495 697.236 254.869 697.661C254.443 697.951 253.893 697.981 253.436 697.746C252.979 697.511 252.688 697.041 252.676 696.526C252.665 696.011 252.935 695.536 253.381 695.276Z" fill="#FFB300"/>
<path d="M421.402 593.122C421.191 592.757 421.324 592.927 420.895 592.597C411.741 585.777 402.87 574.677 401.949 562.677C400.897 548.977 399.625 526.948 404.804 513.986C413.029 493.398 436.684 480.697 458.238 486.68C462.797 487.945 467.092 490.348 471.45 492.135C490.976 507.878 491.945 518.464 491.783 542.237C491.665 559.492 493.037 573.307 479.34 586.942C462.607 603.252 441.085 603.767 421.402 593.122Z" fill="white"/>
<path d="M570.683 485.618C582.573 484.35 594.322 486.452 603.962 493.438C621.597 506.219 624.037 522.554 623.567 542.941C623.212 558.191 624.277 569.296 614.137 582.431C605.817 593.211 597.267 597.801 584.027 599.821C573.717 601.311 560.507 598.606 552.017 592.891C534.977 581.421 531.253 564.271 531.858 545.006C532.328 529.998 530.818 518.671 539.988 505.353C547.953 493.787 557.168 488.342 570.683 485.618Z" fill="white"/>
</svg>
