<svg width="1024" height="1024" viewBox="0 0 1024 1024" fill="none" xmlns="http://www.w3.org/2000/svg">
<path d="M500.785 260.208C506.935 259.318 520.615 260.109 527.005 260.599C601 266.273 670.5 323.887 683.23 398.327C685.285 410.477 686.505 422.753 686.89 435.07C687.545 464.556 683.565 475.068 698.84 502.6C723.94 547.85 765.185 544.48 795.075 580.485C813.3 602.44 821.545 630.995 818.44 659.27C814.95 691.02 796.99 717.79 772.76 737.54C749.35 756.985 719.095 766.195 688.82 763.085C655.025 759.42 624.25 740.435 601.875 715.215C592.865 704.83 585.38 693.155 576.685 682.54C563.875 666.91 543.195 653.08 522.6 651.36C518.055 650.11 506.825 650.88 501.86 651.45C475.97 654.43 456.7 669.55 441.646 689.995C435.929 697.32 430.634 705.42 424.727 712.56C379.671 767.045 302.956 783.83 247.281 733.76C222.796 711.735 208.262 689.525 205.493 656.385C204.12 639.655 206.729 622.835 213.106 607.305C222.461 584.625 239.4 565.895 261.03 554.32C270.112 549.375 279.59 545.5 288.5 539.89C304.915 529.59 324.108 509.01 331.59 490.625C341.041 467.401 335.309 433.351 339.267 408.136C344.115 377.253 354.497 349.312 374.483 325.22C406.637 286.461 450.913 264.278 500.785 260.208Z" fill="#05A9D7"/>
<path d="M442.718 438.646C451.044 437.818 459.102 439.605 466.237 443.914C505.742 467.777 500.777 545.87 453.52 556.96C443.906 558.87 434.249 555.75 426.383 550.235C397.918 530.29 395.107 484.715 414.137 457.556C421.03 447.718 430.769 440.623 442.718 438.646Z" fill="white"/>
<path d="M573.087 438.646C584.747 437.403 595.437 442.13 603.667 450.167C634.392 480.178 627.632 546.224 581.747 557.174C572.552 558.734 562.227 554.899 554.947 549.544C536.117 535.684 529.657 510.919 532.332 488.782C535.142 465.56 548.342 442.183 573.087 438.646Z" fill="white"/>
</svg>
