<svg width="1024" height="1024" viewBox="0 0 1024 1024" fill="none" xmlns="http://www.w3.org/2000/svg">
<path d="M537.139 188.177C538.929 187.904 539.374 187.676 540.974 188.529L541.614 189.42C545.394 197.558 538.489 204.377 539.384 214.18C540.224 223.338 540.564 229.323 542.909 238.184C544.484 244.122 549.359 257.868 549.729 263.047L550.539 264.091C560.589 276.848 570.564 294.59 585.699 302.888C591.599 305.521 596.109 310.557 601.819 313.925C607.249 317.124 613.164 318.854 618.514 321.997C659.989 346.374 680.664 391.204 679.464 438.4C680.044 453.921 671.484 460.991 691.759 465.965C692.624 466.178 700.949 472.445 702.874 473.57C715.389 480.869 727.594 490.036 736.719 501.392C742.244 508.267 748.949 514.442 752.709 522.522C759.764 534.337 765.594 545.802 769.974 558.982C771.739 564.302 772.349 570.007 773.779 574.827C775.229 578.307 775.424 583.132 775.834 586.927C777.884 605.727 776.969 623.382 772.624 641.832C771.699 645.762 770.809 650.617 769.269 654.327C768.754 655.552 768.214 656.767 767.654 657.972C766.334 662.212 761.239 675.662 759.194 679.077C750.094 694.257 735.994 714.852 721.519 725.152C714.769 733.157 687.584 748.697 677.069 752.037C670.514 754.122 666.059 753.647 658.054 757.722C656.054 758.792 645.549 759.057 642.514 759.422C633.079 760.557 623.574 762.672 614.099 762.892C612.639 762.927 609.304 761.067 607.534 761.092C581.464 756.767 559.309 750.062 537.214 734.867C529.404 729.497 525.614 728.087 519.584 720.367C518.334 718.822 515.169 716.567 513.474 715.262C511.414 714.732 506.769 715.322 505.199 716.922C503.549 719.032 501.294 721.917 498.911 723.182C488.536 734.702 470.997 743.552 457.14 750.687C452.55 753.052 435.752 757.067 430.14 758.692C423.186 760.702 411.925 760.092 404.072 761.742C403.12 762.557 403.109 762.467 401.966 763.062C399.912 763.187 398.504 762.212 396.596 761.277C391.101 764.177 387.08 759.637 380 760.872C368.744 757.452 357.087 755.642 345.87 752.167C339.568 750.222 333.335 745.217 327.628 742.612C318.015 738.227 312.257 733.982 304.028 727.402C283.661 711.077 267.655 689.957 257.439 665.937C255.308 660.812 252.997 653.042 251.204 647.522C250.192 644.467 248.015 634.167 247.271 630.507C247.108 630.027 246.833 627.662 246.746 627.017C244.416 605.137 245.343 576.977 252.997 556.042C261.834 533.567 274.659 511.487 292.519 495.102C305.884 482.84 314.638 475.343 330.985 467.167C332.48 465.635 336.221 463.721 338.485 463.348C343.562 462.061 344.668 459.72 348.601 458.675C360.35 455.552 372.477 453.034 384.534 452.359C389.873 450.537 389.192 453.537 395.944 449.102C397.984 450.1 398.655 450.595 400.528 451.934C401.952 451.573 401.484 451.839 402.581 450.893C402.946 447.191 397.621 433.336 396.186 427.781C391.544 416.286 391.584 398.596 389.778 386.637C389.225 384.16 389.651 379.489 390.518 377.032C389.75 371.488 390.052 370.456 390.403 365.061C393.892 311.308 422.596 265.673 462.947 231.118C467.939 226.486 483.099 215.428 489.069 212.708C499.056 205.959 509.574 200.036 520.524 194.998C524.234 193.336 527.884 192.395 531.584 190.985C532.669 190.571 535.459 188.922 537.139 188.177Z" fill="#F75B22"/>
<path d="M475.566 559.176C474.873 543.766 473.342 526.631 484.69 514.421C497.022 501.156 519.324 500.256 532.599 512.861C546.229 525.801 543.539 541.691 543.744 558.901C541.379 563.606 538.684 568.291 537.574 573.481C535.579 582.816 535.019 632.751 537.839 641.691C540.824 651.156 548.984 659.451 557.799 663.716C567.439 668.386 579.889 668.846 589.949 665.296C593.129 664.176 595.754 662.461 598.659 660.801C600.094 660.741 600.189 660.661 601.349 659.806C603.704 663.116 600.974 666.911 601.449 669.606C594.884 680.866 578.404 693.871 566.959 700.551C559.044 705.171 541.789 710.356 532.679 711.551C531.939 711.951 528.489 713.831 527.949 713.821C520.659 713.686 521.079 711.686 519.584 720.366C518.334 718.821 515.169 716.566 513.474 715.261C511.414 714.731 506.769 715.321 505.199 716.921C503.334 713.596 504.824 713.946 502.044 711.906C462.351 712.176 425.873 693.326 410.641 655.356C410.797 654.761 411.049 654.381 411.334 653.816C412.877 653.931 419.039 660.296 422.336 662.301C430.353 667.171 442.796 668.946 451.821 666.741C463.962 663.721 471.576 656.906 477.871 646.331C484.079 635.901 482.401 625.821 482.53 614.256C482.671 601.586 483.829 588.496 482.038 575.926C481.128 569.541 476.918 565.666 475.566 559.176Z" fill="#F75B22"/>
<path d="M517.807 711.921C523.297 712.086 527.247 712.176 532.682 711.551C531.942 711.951 528.492 713.831 527.952 713.821C520.662 713.686 521.082 711.686 519.587 720.366C518.337 718.821 515.172 716.566 513.477 715.261C514.842 713.261 515.652 712.776 517.807 711.921Z" fill="#F75B22"/>
<path d="M502.047 711.904C506.992 711.414 512.777 711.764 517.807 711.919C515.652 712.774 514.842 713.259 513.477 715.259C511.417 714.729 506.772 715.319 505.202 716.919C503.337 713.594 504.827 713.944 502.047 711.904Z" fill="#F75B22"/>
<path d="M410.64 645.355C408.539 640.925 403.475 628.8 403.281 623.915C402.687 605.295 401.35 584.935 403.547 566.48C406.232 550.72 419.154 537.42 435.026 534.86C454.456 531.73 461.627 538.185 475.565 549.175C476.917 555.665 481.127 559.54 482.037 565.925C483.828 578.495 482.67 591.585 482.529 604.255C482.4 615.82 484.078 625.9 477.87 636.33C471.575 646.905 463.961 653.72 451.82 656.74C442.795 658.945 430.352 657.17 422.335 652.3C419.038 650.295 412.876 643.93 411.333 643.815C411.048 644.38 410.796 644.76 410.64 645.355Z" fill="white"/>
<path d="M447.116 631.43L448.747 631.6L449.181 632.43C448.508 634.405 446.155 637.355 444.326 638.23C442.784 637.505 441.177 636.4 439.719 635.465L447.116 631.43Z" fill="white"/>
<path d="M458.864 605.379C460.541 606.774 460.051 605.944 460.7 607.749C460.035 610.079 458.169 611.579 456.467 613.549L452.863 609.999C454.866 608.554 456.904 606.904 458.864 605.379Z" fill="white"/>
<path d="M456.133 626.363C459.415 628.253 454.872 631.833 453.376 633.178C452.108 632.283 452.104 631.838 452.047 630.493C452.977 628.633 454.485 627.698 456.133 626.363Z" fill="white"/>
<path d="M447.044 566.273C449.098 566.758 450.767 566.818 451.788 568.728L451.226 570.243C449.102 569.848 446.869 569.973 446.172 567.843L447.044 566.273Z" fill="white"/>
<path d="M453.092 614.191C454.425 614.816 453.952 614.566 455.008 615.771C455.604 617.731 455.218 618.486 454.741 620.576C453.172 619.591 453.068 619.666 452.15 617.991C451.984 616.091 452.235 615.856 453.092 614.191Z" fill="white"/>
<path d="M433.043 634.257C433.937 634.087 434.804 634.657 435.002 635.547C435.2 636.432 434.658 637.317 433.778 637.547C433.181 637.702 432.548 637.517 432.126 637.067C431.704 636.617 431.56 635.977 431.751 635.392C431.942 634.802 432.438 634.367 433.043 634.257Z" fill="white"/>
<path d="M441.525 554.895L442.768 556.33C443.197 558.195 443.014 558.245 442.347 560.005C441.738 559.425 441.393 558.92 440.87 558.26C440.642 556.225 440.642 556.955 441.525 554.895Z" fill="white"/>
<path d="M543.743 548.9C560.133 532.325 584.923 527.835 603.433 545.255C617.798 558.775 616.578 576.305 616.148 594.185C615.443 613.86 618.693 625.629 608.748 642.844C605.608 644.839 601.693 648.384 598.658 650.799C595.753 652.459 593.128 654.174 589.948 655.294C579.888 658.844 567.438 658.385 557.798 653.715C548.983 649.45 540.823 641.155 537.838 631.69C535.018 622.75 535.578 572.814 537.573 563.479C538.683 558.289 541.378 553.605 543.743 548.9Z" fill="white"/>
<path d="M589.744 592.34C590.994 593.535 590.649 592.83 590.904 594.475C590.079 596.16 586.994 598.005 585.334 599.215L584.629 598.975C583.839 595.41 587.199 593.93 589.744 592.34Z" fill="white"/>
<path d="M594.405 599.371C596.725 600.356 600.44 601.756 600.155 604.541C596.115 605.531 593.86 603.491 594.405 599.371Z" fill="white"/>
<path d="M572.659 587.113C574.569 588.153 575.474 588.613 574.984 590.933L573.859 591.513C571.849 591.063 571.879 591.393 570.594 590.193C570.914 588.468 571.214 588.658 572.659 587.113Z" fill="white"/>
<path d="M573.706 645.658C574.646 645.448 575.591 645.993 575.886 646.913C576.176 647.833 575.721 648.823 574.831 649.198C574.181 649.468 573.431 649.348 572.896 648.888C572.361 648.433 572.131 647.708 572.301 647.023C572.471 646.343 573.016 645.813 573.706 645.658Z" fill="white"/>
<path d="M576.921 594.203C578.221 594.673 578.121 594.678 579.011 595.758C579.336 597.438 579.086 597.593 578.416 599.168C577.501 598.938 577.656 598.928 576.811 598.438C576.081 596.873 576.531 595.918 576.921 594.203Z" fill="white"/>
<path d="M596.68 593.836C598.805 594.371 598.4 593.956 599.785 595.306L599.78 596.966C598.71 596.731 597.715 596.491 596.655 596.226L596.18 595.301L596.68 593.836Z" fill="white"/>
<path d="M550.539 264.09C560.589 276.847 570.564 294.589 585.699 302.887C591.599 305.52 596.109 310.556 601.819 313.924C607.249 317.123 613.164 318.853 618.514 321.996C659.989 346.373 680.664 391.203 679.464 438.399C680.044 453.92 671.484 460.99 691.759 465.964C692.624 466.177 700.949 472.444 702.874 473.569C715.389 480.868 727.594 490.035 736.719 501.391C742.244 508.266 748.949 514.441 752.709 522.521C749.574 520.871 736.199 502.686 732.474 498.687C723.359 487.729 712.784 481.673 701.244 474.262C691.014 467.692 689.409 466.534 677.789 462.298C675.199 453.899 677.349 452.34 677.999 444.375C678.419 439.225 678.359 431.827 678.139 426.639C677.014 392.327 661.934 359.96 636.384 337.026C632.389 333.454 627.864 329.224 623.259 326.57C612.039 320.855 602.819 316.193 592.209 309.203C577.179 299.3 563.699 287.759 554.804 271.837C553.199 268.967 550.694 267.936 550.539 264.09Z" fill="#F75B22"/>
<path d="M246.746 627.014C244.416 605.134 245.343 576.974 252.997 556.039C261.834 533.564 274.659 511.484 292.519 495.099C305.884 482.837 314.638 475.34 330.985 467.164C328.998 471.307 313.889 478.676 309.127 482.359C301.629 488.157 292.342 496.479 285.917 503.384C275.855 514.204 267.018 529.714 260.437 542.969C251.413 561.139 247.508 581.739 247.435 601.954C247.418 606.464 248.686 624.444 246.746 627.014Z" fill="#F75B22"/>
<path d="M462.948 231.117C462.891 231.653 462.743 232.838 462.336 233.212C439.774 253.954 420.309 276.957 407.547 305.041C405.12 310.381 399.672 327.676 397.519 330.378C396.837 339.085 396.031 339.77 393.637 348.118C392.879 350.762 392.882 359.573 392.466 362.904C391.981 366.776 390.627 370.466 390.773 374.205C390.802 374.946 390.991 377.44 390.652 377.804L390.519 377.032C389.751 371.488 390.053 370.456 390.404 365.06C393.893 311.307 422.597 265.673 462.948 231.117Z" fill="#F75B22"/>
<path d="M438.921 753.415C446.166 753.805 448.603 751.88 454.516 748.62C455.662 747.99 460.34 747.28 461.43 746.65C468.247 742.725 476.019 738.555 482.707 734.6C487.264 731.905 494.082 724.845 498.913 723.18C488.538 734.7 470.999 743.55 457.142 750.685C452.552 753.05 435.754 757.065 430.142 758.69C423.188 760.7 411.927 760.09 404.074 761.74L403.863 760.505C406.991 758.04 426.863 758.82 431.825 757.205C433.852 756.545 437.021 754.56 438.921 753.415Z" fill="#F75B22"/>
<path d="M767.657 657.969L767.227 657.359C770.907 646.889 771.467 637.904 773.242 627.454C776.117 615.834 775.332 604.224 774.467 592.429C774.217 589.014 772.077 577.384 773.782 574.824C775.232 578.304 775.427 583.129 775.837 586.924C777.887 605.724 776.972 623.379 772.627 641.829C771.702 645.759 770.812 650.614 769.272 654.324C768.757 655.549 768.217 656.764 767.657 657.969Z" fill="#F75B22"/>
<path d="M395.947 449.102C397.987 450.099 398.658 450.595 400.531 451.933C398.014 452.294 397.096 451.848 394.558 451.371L389.621 454.079C387.474 453.827 386.616 453.718 384.547 453.159C378.519 454.29 371.506 454.746 365.739 456.077C361.783 456.99 342.307 464.798 339.342 464.016L338.488 463.347C343.565 462.06 344.671 459.72 348.604 458.674C360.353 455.551 372.48 453.034 384.537 452.359C389.876 450.537 389.195 453.537 395.947 449.102Z" fill="#F75B22"/>
<path d="M549.729 263.045C546.649 260.641 537.464 224.105 538.204 218.795C538.339 217.808 537.314 212.007 537.514 211.094C538.694 205.654 540.094 200.004 541.639 194.634C542.359 192.178 542.009 192.09 541.614 189.418C545.394 197.556 538.489 204.375 539.384 214.178C540.224 223.336 540.564 229.321 542.909 238.182C544.484 244.12 549.359 257.866 549.729 263.045Z" fill="#F75B22"/>
<path d="M658.055 757.718L657.855 757.158C662.19 752.153 672.65 753.048 677.61 750.738C686.64 746.533 697.525 740.618 706.125 735.653C713.825 731.213 710.971 728.583 721.521 725.148C714.771 733.153 687.585 748.693 677.07 752.033C670.515 754.118 666.06 753.643 658.055 757.718Z" fill="#F75B22"/>
<path d="M537.14 188.176L537.65 188.846C533.135 194.027 520.465 195.56 514.225 199.545C509.445 202.594 503.22 205.25 498.383 208.499C496.812 209.554 490.732 213.994 489.07 212.707C499.057 205.958 509.575 200.035 520.525 194.997C524.235 193.335 527.885 192.394 531.585 190.984C532.67 190.57 535.46 188.921 537.14 188.176Z" fill="#F75B22"/>
<path d="M389.781 386.637C390.608 387.506 391.924 388.833 392.126 390.06C393.236 396.792 392.492 404.696 393.706 411.348C394.771 417.188 396.157 420.992 396.606 427.231L396.189 427.78C391.547 416.285 391.587 398.596 389.781 386.637Z" fill="#F75B22"/>
<path d="M598.66 660.799C601.695 658.384 605.61 654.839 608.75 652.844C608.25 659.229 604.695 663.909 601.45 669.604C600.975 666.909 603.705 663.114 601.35 659.804C600.19 660.659 600.095 660.739 598.66 660.799Z" fill="#F75B22"/>
<path d="M380 760.87C383.018 758.49 390.326 758.255 393.128 760.815C394.42 760.76 395.514 760.715 396.809 760.595L396.889 761.045L396.596 761.275C391.101 764.175 387.08 759.635 380 760.87Z" fill="#F75B22"/>
<path d="M247.273 630.504C248.977 632.259 249.692 633.419 251.053 635.414C251.063 638.599 251.547 644.949 251.207 647.519C250.194 644.464 248.018 634.164 247.273 630.504Z" fill="#F75B22"/>
<path d="M619.929 389.668L620.979 390.305C621.704 392.086 621.364 391.808 620.764 394.145L619.959 393.707C619.199 391.864 619.559 392.001 619.929 389.668Z" fill="#F75B22"/>
<path d="M628.766 267.754C631.836 256.513 631.966 240.736 644.001 234.626C652.646 230.238 661.751 233.866 665.656 242.525C670.611 254.187 662.096 277.001 650.271 281.839C646.701 283.296 642.696 283.262 639.151 281.745C637.996 281.265 636.931 280.406 635.976 279.608C633.296 277.527 630.556 271.112 628.766 267.754Z" fill="#F75B22"/>
<path d="M665.657 242.523C670.612 254.185 662.097 276.999 650.272 281.837C646.702 283.294 642.697 283.26 639.152 281.743C637.997 281.263 636.932 280.404 635.977 279.606C638.927 279.504 642.677 281.841 646.007 281.526C660.312 280.174 667.062 254.08 665.657 242.523Z" fill="#F75B22"/>
<path d="M297.636 377.648C293.65 370.246 286.956 359.306 289.939 351.598C296.954 333.47 318.131 336.644 323.273 354.272C324.596 358.809 327.701 363.465 328.115 368.47C328.456 370.571 328.783 377.418 327.283 379.038C324.541 383.531 322.245 384.798 318.025 387.949C307.569 387.844 303.183 387.166 297.636 377.648Z" fill="#F75B22"/>
<path d="M297.637 377.648C301.396 379.402 301.684 379.924 303.633 383.644C309.042 386.17 311.9 386.029 317.804 386.097C319.569 384.759 325.995 379.167 327.284 379.038C324.541 383.532 322.245 384.799 318.025 387.949C307.57 387.844 303.183 387.166 297.637 377.648Z" fill="#F75B22"/>
</svg>
