<svg width="1024" height="1024" viewBox="0 0 1024 1024" fill="none" xmlns="http://www.w3.org/2000/svg">
<path d="M523.201 340.434C526.196 332.139 527.626 324.61 531.081 316.406C544.531 284.539 569.246 258.74 600.506 243.931C671.641 210.451 752.726 241.289 786.261 311.415C800.961 342.154 802.796 383.592 791.026 415.488C778.286 450.398 752.196 478.817 718.501 494.489C714.286 496.423 710.031 498.115 705.721 499.569C699.281 501.742 686.871 502.007 684.106 509.432C681.536 516.327 688.961 521.192 694.761 522.277C728.671 528.622 758.781 552.947 777.106 581.747C796.711 612.827 803.281 650.377 795.391 686.262C787.026 722.357 764.696 753.662 733.296 773.327C701.906 792.672 664.171 798.892 628.236 790.642C583.106 780.002 544.251 745.062 528.606 701.267C526.796 696.207 525.651 688.632 522.951 684.167C521.371 681.517 518.806 679.597 515.811 678.822C499.598 674.477 498.135 694.292 494.331 704.667C492.449 709.672 490.265 714.562 487.791 719.302C459.447 772.637 400.28 801.987 340.668 792.292C304.061 785.932 271.476 765.297 250.081 734.922C237.049 716.347 224.396 685.437 225.522 662.647C225.169 656.132 224.878 647.557 225.59 641.007C231.343 588.257 268.709 541.182 319.197 524.287C329.146 522.577 349.893 517.492 335.378 504.617C330.371 501.807 322.304 500.767 317.024 498.953C271.597 483.333 235.927 440.839 227.026 393.8C225.519 385.837 225.526 378.291 225.281 370.317C222.877 292.017 292.774 225.562 370.978 230.579C421.161 233.799 468.623 264.46 490.174 310.872C491.752 314.255 493.149 317.719 494.357 321.251C495.987 326.074 497.249 331.146 498.822 336.017C502.946 348.786 514.431 350.582 523.201 340.434Z" fill="#01C881"/>
<path d="M225.522 662.647C225.169 656.132 224.878 647.557 225.59 641.007C231.343 588.257 268.709 541.182 319.197 524.287C329.146 522.577 349.893 517.492 335.378 504.617C330.371 501.807 322.304 500.767 317.024 498.953C271.597 483.333 235.927 440.839 227.026 393.8C225.519 385.837 225.526 378.291 225.281 370.317C222.877 292.017 292.774 225.562 370.978 230.579C421.161 233.799 468.623 264.46 490.174 310.872C491.752 314.255 493.149 317.719 494.357 321.251C495.987 326.074 497.249 331.146 498.822 336.017C502.946 348.786 514.431 350.582 523.201 340.434C523.021 342.936 521.461 344.085 519.506 345.812C519.606 346.593 520.211 351.294 520.026 351.752C518.156 356.272 514.326 360.835 512.296 365.215C511.266 367.446 512.966 373.954 511.066 376.384C509.836 376.519 510.466 376.552 509.186 376.243C508.996 378.239 509.216 380.139 508.066 381.293L505.721 381.376C503.356 384.371 503.811 389.071 499.405 390.542C496.871 391.389 495.241 391.898 492.557 392.339L491.437 393.975C490.409 392.996 490.861 393.063 489.781 392.855C489.098 394.206 489.033 394.471 488.608 395.939C486.707 397.785 485.887 396.271 486.511 401.121C487.095 405.666 485.039 405.12 483.929 407.346C483.279 408.649 487.304 416.394 484.538 419.337C486.811 420.676 487.709 420.488 488.856 422.326C488.424 423.99 488.224 424.009 487.062 425.238C485.257 425.861 486.143 425.856 484.313 425.213C483.479 424.264 483.106 423.916 482.469 422.815C482.758 424.633 482.926 423.836 482.19 425.323C481.017 426.039 481.082 426.079 479.747 426.295C479.791 428.144 480.173 428.614 479.264 429.611C473.048 430.47 471.04 437.009 466.661 437.967C457.162 440.043 461.498 446.234 456.823 450.459C460.036 450.327 468.64 454.407 471.441 456.205C471.65 457.086 471.654 456.863 471.613 457.135C467.255 455.348 462.959 452.945 458.4 451.68C436.847 445.697 413.192 458.398 404.966 478.986C399.788 491.948 401.059 513.977 402.111 527.677C403.032 539.677 411.903 550.777 421.057 557.597C421.486 557.927 421.353 557.757 421.565 558.122C411.766 558.212 401.351 533.812 400.61 524.692C400.483 524.897 400.355 525.102 400.228 525.302C396.837 527.837 390.348 530.397 386.267 531.947C386.023 532.042 384.395 532.047 384.338 532.047C380.312 532.062 381.648 533.762 377.355 533.387C376.204 534.427 375.943 536.072 376.207 537.582L377.429 538.192L376.172 539.262L375.202 539.037L374.82 538.412C373.872 536.897 373.565 535.967 371.955 535.347C370.369 535.497 370.361 535.417 368.945 536.082L367.779 535.632L367.894 538.247C367.995 540.287 368.062 540.427 367.272 542.247L366.296 543.127C364.634 541.987 364.085 539.992 363.515 538.057C361.927 538.177 361.727 538.542 360.438 539.507C359.746 540.852 360.072 540.072 359.981 540.992C359.742 543.417 357.332 546.332 355.76 548.042C353.838 546.922 354.193 546.692 352.505 546.967C350.867 549.562 351.535 553.527 349.091 554.372L343.244 550.707L342.913 551.252C342.108 552.547 341.814 553.347 340.489 554.047C338.988 554.067 339.804 554.087 338.72 553.612C334.644 551.832 326.793 553.342 323.031 552.982C319.974 554.777 321.304 559.027 315.818 559.662C313.883 559.882 308.047 565.337 307.55 567.612C306.662 572.717 311.754 574.312 304.864 579.682C303.821 580.497 301.174 580.362 299.674 580.357C298.555 582.537 299.211 582.377 297.563 583.107C295.76 583.007 293.155 580.877 291.679 579.727C291.709 581.777 291.98 584.187 291.158 585.987C290 586.057 290.037 586.042 288.898 585.937C287.979 586.667 287.34 587.367 287.438 588.612C287.854 593.907 284.746 592.047 282.659 595.302C283.265 596.557 286.351 597.172 287.781 597.602C287.352 598.532 283.923 600.187 282.72 600.872C281.102 599.287 281.597 599.327 279.678 598.787C277.995 599.447 278.556 598.882 277.613 600.162L277.64 603.737L276.227 604.772C276.877 606.782 277.574 607.892 278.594 609.757C276.716 610.787 274.006 611.862 273.117 613.457L273.107 614.472L272.141 614.357C271.032 612.137 272.17 611.542 270.94 609.462C272.378 607.732 274.048 608.677 275.047 605.722C273.184 604.042 271.561 606.197 269.334 605.237C268.741 603.977 269.098 602.492 269.559 601.217C270.579 601.552 270.18 601.472 271.066 602.562L271.792 602.007C271.942 600.047 271.246 598.737 269.747 597.497C265.651 600.117 264.399 609.072 264.464 613.707C264.517 617.407 257.929 623.772 261.012 627.082C263.237 629.337 261.996 635.977 265.549 638.132L266.045 637.702C267.798 636.202 268.979 635.087 271.429 635.272C272.084 636.272 272.101 636.477 272.496 637.622C273.404 637.797 274.278 638.017 275.16 638.292L275.663 639.577C273.628 640.572 272.819 639.132 270.554 640.712C271.543 642.932 270.369 649.777 270.073 652.437C268.728 652.717 269.207 652.617 267.715 652.202C265.431 653.912 267.744 654.692 265.793 655.162C265.521 654.437 265.236 653.717 264.94 653.002C266.429 649.682 268.399 649.447 268.989 647.757C268.168 646.637 267.699 646.837 266.023 646.327L266.199 645.287C262.998 645.757 263.011 645.417 260.872 647.452C259.146 647.457 259.982 647.227 258.422 648.587C258.248 649.707 258.248 649.942 258.209 651.067C257.381 652.242 256.288 652.582 254.969 653.227C254.01 654.847 253.621 655.352 254.519 657.262C251.56 658.822 252.329 657.017 251.358 659.527L250.995 659.237C250.825 657.112 251.207 657.217 250.057 656.132C249.771 656.382 247.911 660.262 246.681 661.752C245.542 661.022 246.045 661.507 245.595 659.697C244.011 661.417 241.047 665.027 239.185 666.067C237.319 663.202 236.594 664.632 234.642 662.027L234.631 660.162L234.162 659.837L232.465 661.012C231.21 660.762 231.747 661.017 230.821 660.327C230.245 661.377 230.204 661.347 230.01 662.512H229.402C228.646 661.347 228.695 660.327 228.552 658.927L228.252 658.997C228.275 660.522 228.548 662.832 227.759 663.952C226.841 662.477 226.451 658.837 226.137 656.952C226.061 658.962 226.13 660.737 225.522 662.647Z" fill="#01C881"/>
<path d="M421.562 558.122C421.351 557.757 421.484 557.927 421.055 557.597C411.901 550.777 403.03 539.677 402.109 527.677C401.057 513.977 399.785 491.948 404.964 478.986C413.189 458.398 436.844 445.697 458.398 451.68C462.957 452.945 467.252 455.348 471.61 457.135C491.136 472.878 492.105 483.464 491.943 507.237C491.825 524.492 493.197 538.307 479.5 551.942C462.767 568.252 441.245 568.767 421.562 558.122Z" fill="white"/>
<path d="M260.48 655.488C261.15 652.063 260.608 652.983 262.654 650.713L263.634 650.398C264.811 651.223 264.77 651.373 264.94 652.998L263.811 652.923C262.452 654.343 262.435 654.588 261.668 656.453C260.656 655.943 261.026 656.298 260.48 655.488Z" fill="#01C881"/>
<path d="M568.78 450.59C580.67 449.323 592.42 451.425 602.06 458.411C619.695 471.192 622.135 487.527 621.665 507.914C621.31 523.164 622.375 534.269 612.235 547.404C603.915 558.184 595.365 562.774 582.125 564.794C571.815 566.284 558.605 563.579 550.115 557.864C533.075 546.394 529.35 529.244 529.955 509.979C530.425 494.971 528.915 483.643 538.085 470.326C546.05 458.759 555.265 453.315 568.78 450.59Z" fill="white"/>
<path d="M365.145 553.851C367.196 553.706 367.088 553.761 368.119 554.631C368.652 556.971 366.671 559.771 365.467 561.871C359.472 560.126 360.267 556.576 365.145 553.851Z" fill="#01C881"/>
<path d="M374.604 556.852C376.512 557.222 378.367 557.747 379.538 559.317C379.823 561.417 379.679 560.857 378.737 563.107L376.245 563.132C373.734 561.557 373.52 559.482 374.604 556.852Z" fill="#01C881"/>
<path d="M321.69 618.92C322.729 618.73 323.74 619.365 324.029 620.38C324.319 621.395 323.792 622.465 322.811 622.855C322.082 623.14 321.253 622.99 320.672 622.465C320.091 621.94 319.86 621.13 320.076 620.375C320.292 619.62 320.918 619.055 321.69 618.92Z" fill="#01C881"/>
<path d="M682.451 310.203C683.206 310.447 683.796 310.755 684.521 311.087C684.956 312.775 684.941 311.865 683.806 313.921C682.486 313.943 682.946 314.033 681.761 313.487C681.401 311.727 681.561 312.207 682.451 310.203Z" fill="#01C881"/>
<path d="M663.454 324.855C664.034 325.167 664.514 325.605 665.044 326.022C665.639 327.386 665.194 328.337 664.839 329.827C663.714 329.434 664.144 329.653 663.279 328.661C662.819 326.792 662.989 326.685 663.454 324.855Z" fill="#01C881"/>
</svg>
