<svg width="1024" height="1024" viewBox="0 0 1024 1024" fill="none" xmlns="http://www.w3.org/2000/svg">
<g clip-path="url(#clip0_941_1385)">
<path d="M731.629 152.71C778.603 160.871 820.415 187.35 847.87 226.326C864.592 250.161 880.827 289.825 879.382 319.069C879.835 327.428 880.209 338.432 879.296 346.837C873.701 398.132 844.811 445.245 802.951 474.491C802.52 474.793 802.087 475.093 801.652 475.391C796.441 478.963 791.032 482.259 785.447 485.254C784.516 485.754 783.58 486.244 782.639 486.727C778.406 488.897 774.075 490.896 769.654 492.712C768.671 493.115 767.684 493.509 766.693 493.894C764.216 494.858 761.71 495.763 759.18 496.61C755.39 497.262 750.379 498.296 745.693 499.859C745.2 500.023 744.71 500.192 744.226 500.369C742.531 500.986 740.903 501.679 739.418 502.452C738.994 502.673 738.581 502.9 738.182 503.134C735.887 504.482 734.041 506.055 732.983 507.887C732.892 508.046 732.805 508.207 732.725 508.37C732.446 508.941 732.243 509.537 732.126 510.157C732.092 510.334 732.064 510.514 732.045 510.695C731.861 512.418 732.327 514.329 733.638 516.445C733.776 516.668 733.924 516.893 734.081 517.12C735.101 518.598 736.526 520.173 738.418 521.851C744.241 525.118 753.288 526.521 759.975 528.487C760.436 528.622 760.886 528.761 761.323 528.902C761.541 528.973 761.756 529.045 761.968 529.118C820.26 549.162 866.031 603.69 877.454 664.05C879.387 674.268 879.378 683.951 879.692 694.182C879.921 701.639 879.639 709.014 878.879 716.272C878.84 716.654 878.798 717.036 878.755 717.417C878.585 718.942 878.394 720.463 878.181 721.978C878.075 722.735 877.964 723.491 877.847 724.246C865.264 805.749 792.57 870.9 709.09 873.738C708.318 873.764 707.544 873.785 706.769 873.801C705.995 873.816 705.219 873.826 704.442 873.831C704.054 873.833 703.664 873.834 703.275 873.834C699.778 873.831 696.263 873.718 692.736 873.492C628.342 869.361 567.438 830.016 539.784 770.461C537.76 766.121 535.968 761.675 534.418 757.143C532.587 751.728 531.118 746.068 529.427 740.55C529.307 740.157 529.185 739.764 529.062 739.372C528.939 738.979 528.814 738.587 528.688 738.196C527.447 734.356 525.688 731.289 523.577 729.012C523.295 728.708 523.007 728.418 522.713 728.142C522.42 727.867 522.121 727.606 521.816 727.358C521.511 727.111 521.2 726.877 520.884 726.658C518.675 725.125 516.217 724.284 513.646 724.15C513.279 724.131 512.909 724.127 512.537 724.137C507.706 724.264 502.549 726.833 497.935 731.928C497.757 732.124 497.581 732.324 497.405 732.527L497.05 733.523C493.444 743.777 491.588 753.161 487.294 763.36C470.035 804.251 438.321 837.357 398.208 856.359C306.929 899.321 202.882 859.749 159.85 769.765C140.987 730.32 138.633 677.148 153.736 636.22C170.084 591.423 203.561 554.957 246.798 534.846C252.206 532.364 257.668 530.194 263.198 528.328C271.462 525.54 287.386 525.199 290.934 515.672C294.231 506.824 284.703 500.582 277.261 499.189C233.748 491.047 195.112 459.835 171.597 422.879C146.44 382.998 138.01 334.813 148.134 288.766C158.868 242.45 187.522 202.279 227.814 177.046C268.094 152.223 316.515 144.241 362.626 154.827C420.536 168.48 470.394 213.315 490.469 269.512C492.792 276.004 494.262 285.725 497.726 291.455C499.754 294.855 503.045 297.319 506.888 298.313C527.693 303.888 529.57 278.463 534.452 265.149C536.866 258.727 539.668 252.453 542.842 246.37C579.213 177.932 655.136 140.269 731.629 152.71Z" fill="white"/>
</g>
<defs>
<clipPath id="clip0_941_1385">
<rect width="1024" height="1024" fill="white" transform="translate(1024 4.47605e-05) rotate(90)"/>
</clipPath>
</defs>
</svg>
